<?xml version="1.0" encoding="utf-8"?>
<!-- Generator: Adobe Illustrator 25.4.1, SVG Export Plug-In . SVG Version: 6.00 Build 0)  -->
<svg version="1.1" id="Laag_1" xmlns="http://www.w3.org/2000/svg" xmlns:xlink="http://www.w3.org/1999/xlink" x="0px" y="0px"
	 viewBox="0 0 8949.6 8949.6" enable-background="new 0 0 8949.6 8949.6" xml:space="preserve">
<g>
	<path d="M498.6,2414.3c0-668.2,0-1309.9,0-1971.4c659.6,0,1307.9,0,1975.4,0c0,657.6,0,1305.9,0,1971.4
		C1813.8,2414.3,1172.1,2414.3,498.6,2414.3z"/>
	<path d="M2476.7,6460c0,680.1,0,1320.5,0,1982.7c-655.6,0-1303.9,0-1990,0c0-611.8-3.3-1224.3,6-1836.7
		c0.7-49.1,84.3-138.7,130.7-139.3C1235.8,6456.7,1848.3,6460,2476.7,6460z"/>
	<path d="M486,5417.6c0-615.1-4-1209.7,6.6-1803.6c0.7-55.7,91.6-155.9,142-157.3c603.8-11.3,1207.7-7.3,1835.4-7.3
		c0,666.2,0,1304.6,0,1968.1C1824.4,5417.6,1177.4,5417.6,486,5417.6z"/>
	<path d="M3521.1,436.9c679.5,0,1311.2,0,1964.1,0c0,660.9,0,1309.2,0,1992.7c-617.1,0-1220.9,4-1824.8-7.3
		c-47.8-0.7-132-108.8-133.4-168.5C3517.2,1657.9,3521.1,1062,3521.1,436.9z"/>
	<path d="M6535,436.3c678.8,0,1311.9,0,1971.4,0c0,651,0,1299.2,0,1995.3c-258.8,0-524.2,0-789.6,0c-327.8,0-656.3,10-982.7-8.6
		c-69-4-189.1-107.5-190.4-167.9C6529.7,1659.9,6535,1063.3,6535,436.3z"/>
	<path d="M6535.7,3462.1c684.8,0,1316.5,0,1972.8,0c0,656.3,0,1301.9,0,1978.7c-615.1,0-1219,4-1822.8-7.3
		c-51.1-0.7-142.7-101.5-144-157.3C6531.7,4681.7,6535.7,4087.2,6535.7,3462.1z"/>
	<path d="M6534.4,8442.8c0-617.8-6-1205,8-1791.6c1.3-65.7,113.5-182.5,176.5-183.8c585.9-13.9,1172.5-8.6,1786.3-8.6
		c0,666.9,0,1314.5,0,1984C7867.4,8442.8,7219.1,8442.8,6534.4,8442.8z"/>
	<path d="M5505.2,5442.1c-633.7,0-1219,6-1803.6-8.6c-61.7-1.3-171.9-119.4-173.2-185.1c-13.9-538.1-14.6-1077,0.7-1614.4
		c2-63,118.1-175.2,183.8-176.5c538.1-14.6,1077-13.3,1615.1-0.7c60.4,1.3,168.5,102.9,169.2,159.9
		C5509.8,4209.9,5505.2,4804.5,5505.2,5442.1z"/>
	<path d="M3519.8,8445.4c0-617.1-6-1203.7,8-1789.6c1.3-67,111.5-187.1,173.2-188.5c585.3-14.6,1170.5-8.6,1780.3-8.6
		c0,674.8,0,1321.1,0,1986.7C4837.6,8445.4,4198.6,8445.4,3519.8,8445.4z"/>
</g>
</svg>
