<?xml version="1.0" encoding="utf-8"?>
<!-- Generator: Adobe Illustrator 25.4.1, SVG Export Plug-In . SVG Version: 6.00 Build 0)  -->
<svg version="1.1" id="Laag_1" xmlns="http://www.w3.org/2000/svg" xmlns:xlink="http://www.w3.org/1999/xlink" x="0px" y="0px"
	 viewBox="0 0 1417.3 1417.3" style="enable-background:new 0 0 1417.3 1417.3;" xml:space="preserve">
<g>
	<path d="M262.4,98.4c302,0,604.1,0,906.1,0c3.4,2.2,6.6,5.3,10.3,6.6c97.1,32.6,122.1,66.9,122.1,167.6c0,325.1,0,650.1,0,975.2
		c0,16.3,0,32.6,0,53.2c-18-5.6-32.3-9.7-46.3-14.5c-161.8-55.6-324-110.4-485.2-167.7c-34.2-12.2-63.9-13.5-98.3-0.8
		c-109.2,40.2-219.5,77.4-329.5,115.2c-66.4,22.8-133.2,44.6-201.9,67.6c-1-11.6-2-17-2-22.4c-0.1-345.6,0-691.3-0.2-1036.9
		c0-59.4,31.6-96.9,81.8-122.4C233.6,111.9,248.1,105.3,262.4,98.4z M1131.4,1102.3c2.6-10.7,4.3-14.6,4.3-18.5
		c0.2-273.1-0.2-546.2,0.9-819.3c0.1-34.5-19.4-32.5-42.5-32.5c-249.8,0.2-499.5,0.8-749.3-0.6c-35.5-0.2-43.1,12-42.9,45
		c1.2,262.1,0.6,524.2,0.8,786.4c0,11.7,1.6,23.4,2.8,40c71.6-24.7,138.7-47.7,205.8-70.9c68.6-23.8,137.2-66.6,205.7-66.4
		c70,0.2,139.8,42.4,209.7,66.3C993.9,1054.8,1060.9,1078,1131.4,1102.3z"/>
</g>
</svg>
