<?xml version="1.0" encoding="utf-8"?>
<!-- Generator: Adobe Illustrator 25.4.1, SVG Export Plug-In . SVG Version: 6.00 Build 0)  -->
<svg version="1.1" id="Laag_1" xmlns="http://www.w3.org/2000/svg" xmlns:xlink="http://www.w3.org/1999/xlink" x="0px" y="0px"
	 viewBox="0 0 1417.3 1417.3" style="enable-background:new 0 0 1417.3 1417.3;" xml:space="preserve">
<g>
	<path d="M691.2,1329.6C353,1326.6,87.4,1052.2,90.4,708.9C93.3,383.4,372.8,112,700.7,116.3c336.7,4.5,605.1,279.2,602,616.3
		C1299.5,1061.3,1021.8,1332.4,691.2,1329.6z M1036,390.7c-153.7,156.1-304.1,308.9-461.7,469c-73.9-79.4-141.9-152.4-204.7-219.9
		c-38.7,31.9-67.9,56-89.1,73.4C383.2,818,482,919,578.1,1017c178.2-178.8,358.3-359.3,537.2-538.8
		C1091.8,452.3,1066,423.9,1036,390.7z"/>
</g>
</svg>
