<?xml version="1.0" encoding="utf-8"?>
<!-- Generator: Adobe Illustrator 25.4.1, SVG Export Plug-In . SVG Version: 6.00 Build 0)  -->
<svg version="1.1" id="Laag_1" xmlns="http://www.w3.org/2000/svg" xmlns:xlink="http://www.w3.org/1999/xlink" x="0px" y="0px"
	 viewBox="0 0 1417.3 1417.3" style="enable-background:new 0 0 1417.3 1417.3;" xml:space="preserve">
<g>
	<path d="M269.3,264.5c48.5,19.3,88.8,35.8,129.4,51.4c52.4,20.1,141.2-32.6,148.9-88c4.6-32.8,11.3-65.4,13.6-98.3
		c2.5-35.6,18.4-50.7,54.3-50.1c69.2,1.3,138.4,1.2,207.6,0.1c35.7-0.6,52.7,15.1,54.8,50.3c1.1,17.9,9.4,36.1,7.4,53.4
		c-9.4,79.8,45.9,109.9,104,136.6c11.6,5.3,29.3,3.4,42.1-1.1c36.8-12.9,72.8-28.3,108.7-43.7c30.1-12.9,50.5-6.2,66.7,23.7
		c31.6,58.1,63.7,116.1,99.6,171.6c24.5,37.9,18.1,63.3-18.4,85.6c-10.2,6.2-18,16.7-28.5,22c-66.7,33.4-88.2,88.4-75.6,158.6
		c2.6,14.6,9.3,31.6,19.8,41c31.3,28,65.4,53,98.7,78.8c21.2,16.4,25.9,34.8,11.9,58.7c-38,64.9-73.4,131.3-114,194.4
		c-8,12.4-34.9,18.6-52.5,17.5c-20-1.3-40.8-11.5-58.4-22.4c-56.4-34.8-106.3-29.1-160,9.7c-23.4,16.9-36.3,32.4-39.3,59.3
		c-3.1,26.9-7.3,53.6-10.8,80.4c-8.9,66.9-8.9,67-78.1,66.9c-64.7,0-129.4-0.7-194.1,0.3c-27.9,0.4-41.5-11.1-44.4-38.7
		c-2.9-26.9-11.3-53.6-11.2-80.3c0-49.1-22.2-76.3-64.9-101.1c-39.7-23.1-69.4-24-111.3-7.7c-139.1,54.2-106.6,69.8-182.8-59.7
		c-21.3-36.3-40.6-73.9-64-108.8c-21.8-32.5-15-55,15.6-75.3c15-9.9,27.5-23.9,43-32.8c53.1-30.5,77.1-72,69.4-135.9
		c-3.5-29.2-7.2-50.2-32.5-67.5c-30.9-21.2-58.6-47.1-88.7-69.6c-22.1-16.5-26.2-33.9-12.1-57.9c37.4-63.4,73-128,111.2-190.9
		C242.5,281.8,258.7,273.4,269.3,264.5z M717.5,480.3c-120.1,1.3-220,101.3-218.4,218.7c1.7,125.7,97.8,222.1,220.2,220.8
		c120.8-1.2,221-100.9,218.9-217.8C935.9,577.5,837.9,479,717.5,480.3z"/>
</g>
</svg>
